<svg xmlns="http://www.w3.org/2000/svg" width="147" height="36" viewBox="0 0 147 36"><g fill="none" fill-rule="evenodd"><path fill="#2F3033" d="M103.766 16.193c-.773 0-1.15-.496-1.15-1.01 0-.673.486-1.009 1.097-1.097l2.085-.307v.39c0 1.54-1.025 2.025-2.032 2.024zm.42-7.026c2.395 0 3.918 1.227 3.918 3.636V17.7h-2.203l.01-.968c-.442.684-1.388 1.208-2.56 1.208-1.888-.001-3.038-1.259-3.038-2.623.001-1.558 1.17-2.425 2.644-2.637 0 0 2.422-.296 2.766-.344 0-1.03-.93-1.262-1.856-1.262-.95 0-1.705.341-2.288.745l-.864-1.551c.906-.66 2.096-1.1 3.471-1.1zM53.02 10.298c.601-.823 1.498-1.114 2.42-1.114 1.916 0 3.283 1.312 3.283 3.241v5.291h-2.272v-4.57c0-1.201-.61-1.862-1.646-1.862-.975 0-1.785.627-1.785 1.879v4.553h-2.272V6h2.272v4.298zm30.08 2.127v5.291h-2.264v-4.57c0-1.201-.618-1.862-1.645-1.862-.975 0-1.785.627-1.785 1.879v4.553h-2.273v-4.57c0-1.201-.609-1.862-1.645-1.862-.975 0-1.785.627-1.785 1.879v4.553h-2.272v-8.31h2.211v.978c.6-.883 1.524-1.2 2.482-1.2 1.218 0 2.22.54 2.786 1.423.653-1.055 1.758-1.423 2.864-1.423 1.985 0 3.326 1.312 3.326 3.241zm10.176 1.132c0 2.495-1.759 4.373-4.083 4.373-1.167 0-1.977-.463-2.525-1.131v.917h-2.22V6.01h2.263v4.264c.549-.652 1.341-1.09 2.473-1.09 2.333 0 4.092 1.879 4.092 4.374zm-6.63 0c0 1.312.88 2.29 2.168 2.29 1.34 0 2.176-1.02 2.176-2.29s-.835-2.29-2.176-2.29c-1.289 0-2.168.978-2.168 2.29zm30.163-2.804l-1.637 1.346c-.513-.54-1.062-.832-1.802-.832-1.175 0-2.116.91-2.116 2.29 0 1.39.932 2.29 2.107 2.29.731 0 1.359-.326 1.837-.84l1.62 1.363c-.793 1.003-1.977 1.56-3.387 1.56-2.69 0-4.493-1.852-4.493-4.373 0-2.513 1.802-4.373 4.493-4.373 1.41 0 2.603.566 3.378 1.569zm8.726-1.347l-3.057 3.107L126 17.716h-2.765l-2.35-3.762L119.857 15v2.716h-2.272V6.008h2.272v6.488l2.943-3.09h2.735zm-59.827 7.418c-.601.824-1.498 1.115-2.42 1.115-1.916 0-3.283-1.312-3.283-3.242v-5.29h2.272v4.57c0 1.2.61 1.861 1.646 1.861.975 0 1.785-.626 1.785-1.878V9.406h2.272v8.31h-2.272v-.892zm27.868-7.418h1.236v-2.47h2.264v2.47h2.519v1.99h-2.519v3.516c0 .582.41.935.856.935.472 0 1.085-.293 1.085-.293l.732 1.78s-.778.587-2.516.587c-1.15 0-2.42-.857-2.42-2.52v-4.005h-1.237v-1.99zM46.208 9.18v5.278a5.13 5.13 0 0 1-.705 2.592l-.51.871-.51-.871a5.13 5.13 0 0 1-.704-2.592v-4.16c.603-.826 1.503-1.118 2.429-1.118zM40 8.238V6h9.986v2.238H40z"/><path fill="#009FD9" fill-rule="nonzero" d="M5.487 9.585a2.692 2.692 0 0 0-1.385 2.312L4 18.6l.091 6.703c.013.962.54 1.844 1.382 2.314l11.147 5.911c.423.237.912.446 1.38.472V3a3.134 3.134 0 0 0-1.357.384l-11.156 6.2z"/><path fill="#0AB9E4" fill-rule="nonzero" d="M30.513 9.585a2.692 2.692 0 0 1 1.385 2.312L32 18.6l-.091 6.703a2.693 2.693 0 0 1-1.382 2.314L19.38 33.528c-.423.237-.912.446-1.38.472V3c.468.026.933.148 1.357.384l11.156 6.2z"/><path fill="#FEBE14" fill-rule="nonzero" d="M17.457 11.432l-1.376 4.437H11.56c-.312 0-.56.284-.56.612 0 .201.096.38.242.487.09.064 3.652 2.779 3.652 2.779s-1.368 4.383-1.395 4.453a.684.684 0 0 0-.034.206.58.58 0 0 0 .565.594c.12 0 .23-.04.324-.106L18 22.124s3.564 2.709 3.646 2.77a.552.552 0 0 0 .323.106c.313 0 .566-.268.566-.594a.677.677 0 0 0-.035-.206c-.026-.07-1.394-4.453-1.394-4.453s3.561-2.715 3.652-2.779a.605.605 0 0 0 .242-.49c0-.325-.242-.609-.554-.609h-4.52l-1.384-4.437A.567.567 0 0 0 18 11a.568.568 0 0 0-.543.432"/><path fill="#676D73" d="M44.174 28.376h-2.208v3.378H41v-8.4h3.174c1.884 0 2.97.942 2.97 2.514 0 1.572-1.086 2.508-2.97 2.508zm-.03-4.11h-2.178v3.204h2.178c1.296 0 1.998-.534 1.998-1.602s-.702-1.602-1.998-1.602zm7.236 1.692c.408 0 .744.054 1.044.192l-.216.882c-.276-.15-.654-.228-.984-.228-.888 0-1.524.696-1.524 1.77v3.18h-.894v-5.682h.888v.798c.39-.582.99-.912 1.686-.912zm4.962 0c1.71 0 2.994 1.272 2.994 2.952 0 1.686-1.284 2.958-2.994 2.958-1.71 0-2.988-1.272-2.988-2.958 0-1.68 1.278-2.952 2.988-2.952zm0 .84c-1.182 0-2.076.888-2.076 2.112 0 1.23.894 2.118 2.076 2.118 1.176 0 2.076-.888 2.076-2.118 0-1.224-.9-2.112-2.076-2.112zm8.388-.726v.81h-2.262v4.872h-.9v-4.872h-1.296v-.81h1.296V25.1c0-1.212.546-2.1 1.89-2.1.642 0 1.152.18 1.554.426l-.324.75a2.412 2.412 0 0 0-1.17-.336c-.732 0-1.05.468-1.05 1.26v.972h2.262zm3.84-.114c1.542 0 2.658 1.206 2.67 2.934 0 .114-.006.234-.018.336h-4.554c.126 1.224.984 1.854 2.01 1.854a2.63 2.63 0 0 0 1.8-.714l.48.612c-.708.678-1.5.888-2.334.888-1.68 0-2.874-1.194-2.874-2.952 0-1.74 1.2-2.958 2.82-2.958zm-.018.798c-1.05 0-1.728.72-1.872 1.746h3.648c-.114-1.062-.81-1.746-1.776-1.746zm8.562-.174l-.39.696c-.366-.252-1.092-.534-1.86-.534-.81 0-1.344.342-1.344.894 0 .474.414.708 1.158.798l.672.084c1.206.156 1.908.654 1.908 1.584 0 1.08-.972 1.758-2.502 1.758-.732 0-1.65-.18-2.37-.726l.414-.672c.432.336 1.008.618 1.968.618s1.566-.318 1.566-.918c0-.456-.384-.732-1.188-.828l-.678-.078c-1.278-.156-1.878-.726-1.878-1.572 0-1.074.906-1.722 2.268-1.722.894 0 1.71.252 2.256.618zm5.922 0l-.39.696c-.366-.252-1.092-.534-1.86-.534-.81 0-1.344.342-1.344.894 0 .474.414.708 1.158.798l.672.084c1.206.156 1.908.654 1.908 1.584 0 1.08-.972 1.758-2.502 1.758-.732 0-1.65-.18-2.37-.726l.414-.672c.432.336 1.008.618 1.968.618s1.566-.318 1.566-.918c0-.456-.384-.732-1.188-.828l-.678-.078c-1.278-.156-1.878-.726-1.878-1.572 0-1.074.906-1.722 2.268-1.722.894 0 1.71.252 2.256.618zm2.616-.51v5.682h-.9v-5.682h.9zm-.45-2.652c.354 0 .636.276.636.636s-.282.63-.636.63c-.36 0-.63-.27-.63-.63s.27-.636.63-.636zm5.106 2.538c1.71 0 2.994 1.272 2.994 2.952 0 1.686-1.284 2.958-2.994 2.958-1.71 0-2.988-1.272-2.988-2.958 0-1.68 1.278-2.952 2.988-2.952zm0 .84c-1.182 0-2.076.888-2.076 2.112 0 1.23.894 2.118 2.076 2.118 1.176 0 2.076-.888 2.076-2.118 0-1.224-.9-2.112-2.076-2.112zm7.464-.84c1.404 0 2.37.9 2.37 2.274v3.522h-.894v-3.228c0-1.08-.6-1.716-1.638-1.716-.954 0-1.74.66-1.74 1.74v3.204h-.9v-5.682h.888v.81c.462-.678 1.218-.924 1.914-.924zm6.474 0c1.536 0 2.466.828 2.466 2.382v3.414h-.894v-.66c-.48.42-1.212.774-2.076.774-1.254 0-1.998-.738-1.998-1.734 0-.99.822-1.716 2.34-1.716h1.734c-.012-1.122-.624-1.65-1.686-1.65-.696 0-1.248.282-1.656.6l-.426-.672a3.526 3.526 0 0 1 2.196-.738zm-.324 5.118c.726 0 1.398-.36 1.896-.906v-1.002h-1.638c-1.086 0-1.482.456-1.482.966s.42.942 1.224.942zm5.724-7.962v8.64h-.9v-8.64h.9z"/></g></svg>